<svg width="78" height="73" fill="none" xmlns="http://www.w3.org/2000/svg"><path d="M35.273 55.09c0 9.668-7.836 17.5-17.5 17.5-9.668 0-17.5-7.832-17.5-17.5 0-9.664 7.832-17.5 17.5-17.5 9.665 0 17.5 7.836 17.5 17.5Z" fill="#CB3C33" stroke="#EEE" stroke-width=".5"/><path d="M77.32 55.09c0 9.668-7.836 17.5-17.5 17.5s-17.5-7.832-17.5-17.5c0-9.664 7.836-17.5 17.5-17.5s17.5 7.836 17.5 17.5Z" fill="#9558B2" stroke="#EEE" stroke-width=".5"/><path d="M56.3 18.672c0 9.664-7.835 17.5-17.5 17.5-9.667 0-17.5-7.836-17.5-17.5s7.833-17.5 17.5-17.5c9.665 0 17.5 7.836 17.5 17.5Z" fill="#389826" stroke="#EEE" stroke-width=".5"/></svg>